<?xml version="1.0" encoding="UTF-8" standalone="no"?>
<!-- Created with Inkscape (http://www.inkscape.org/) -->

<svg
   width="32"
   height="32"
   viewBox="0 0 8.4666667 8.4666667"
   version="1.1"
   id="svg5"
   sodipodi:docname="refresh.svg"
   inkscape:export-filename="D:\starstable\wip\ui stuff\sse_refresh2.png"
   inkscape:export-xdpi="96"
   inkscape:export-ydpi="96"
   inkscape:version="1.1.1 (3bf5ae0d25, 2021-09-20)"
   xmlns:inkscape="http://www.inkscape.org/namespaces/inkscape"
   xmlns:sodipodi="http://sodipodi.sourceforge.net/DTD/sodipodi-0.dtd"
   xmlns="http://www.w3.org/2000/svg"
   xmlns:svg="http://www.w3.org/2000/svg">
  <sodipodi:namedview
     id="namedview7"
     pagecolor="#505050"
     bordercolor="#eeeeee"
     borderopacity="1"
     inkscape:pageshadow="0"
     inkscape:pageopacity="0"
     inkscape:pagecheckerboard="0"
     inkscape:document-units="px"
     showgrid="true"
     units="px"
     inkscape:snap-bbox="true"
     inkscape:snap-nodes="true"
     inkscape:snap-others="false"
     inkscape:snap-bbox-midpoints="true"
     inkscape:zoom="16"
     inkscape:cx="4.65625"
     inkscape:cy="26.28125"
     inkscape:window-width="1920"
     inkscape:window-height="1137"
     inkscape:window-x="2552"
     inkscape:window-y="-8"
     inkscape:window-maximized="1"
     inkscape:current-layer="g4366">
    <inkscape:grid
       type="xygrid"
       id="grid824" />
  </sodipodi:namedview>
  <defs
     id="defs2">
    <marker
       style="overflow:visible"
       id="DotL"
       refX="0.0"
       refY="0.0"
       orient="auto"
       inkscape:stockid="DotL"
       inkscape:isstock="true">
      <path
         transform="scale(0.8) translate(7.4, 1)"
         style="fill-rule:evenodd;fill:context-stroke;stroke:context-stroke;stroke-width:1.0pt"
         d="M -2.5,-1.0 C -2.5,1.7600000 -4.7400000,4.0 -7.5,4.0 C -10.260000,4.0 -12.5,1.7600000 -12.5,-1.0 C -12.5,-3.7600000 -10.260000,-6.0 -7.5,-6.0 C -4.7400000,-6.0 -2.5,-3.7600000 -2.5,-1.0 z "
         id="path1145" />
    </marker>
    <marker
       style="overflow:visible"
       id="Arrow2Sstart"
       refX="0.0"
       refY="0.0"
       orient="auto"
       inkscape:stockid="Arrow2Sstart"
       inkscape:isstock="true">
      <path
         transform="scale(0.3) translate(-2.3,0)"
         d="M 8.7185878,4.0337352 L -2.2072895,0.016013256 L 8.7185884,-4.0017078 C 6.9730900,-1.6296469 6.9831476,1.6157441 8.7185878,4.0337352 z "
         style="stroke:context-stroke;fill-rule:evenodd;fill:context-stroke;stroke-width:0.62500000;stroke-linejoin:round"
         id="path1114" />
    </marker>
    <marker
       style="overflow:visible"
       id="Tail"
       refX="0.0"
       refY="0.0"
       orient="auto"
       inkscape:stockid="Tail"
       inkscape:isstock="true">
      <g
         transform="scale(-1.2)"
         id="g1132">
        <path
           style="fill:none;fill-rule:evenodd;stroke:context-stroke;stroke-width:0.8;stroke-linecap:round"
           d="M -3.8048674,-3.9585227 L 0.54352094,0"
           id="path1120" />
        <path
           style="fill:none;fill-rule:evenodd;stroke:context-stroke;stroke-width:0.8;stroke-linecap:round"
           d="M -1.2866832,-3.9585227 L 3.0617053,0"
           id="path1122" />
        <path
           style="fill:none;fill-rule:evenodd;stroke:context-stroke;stroke-width:0.8;stroke-linecap:round"
           d="M 1.3053582,-3.9585227 L 5.6537466,0"
           id="path1124" />
        <path
           style="fill:none;fill-rule:evenodd;stroke:context-stroke;stroke-width:0.8;stroke-linecap:round"
           d="M -3.8048674,4.1775838 L 0.54352094,0.21974226"
           id="path1126" />
        <path
           style="fill:none;fill-rule:evenodd;stroke:context-stroke;stroke-width:0.8;stroke-linecap:round"
           d="M -1.2866832,4.1775838 L 3.0617053,0.21974226"
           id="path1128" />
        <path
           style="fill:none;fill-rule:evenodd;stroke:context-stroke;stroke-width:0.8;stroke-linecap:round"
           d="M 1.3053582,4.1775838 L 5.6537466,0.21974226"
           id="path1130" />
      </g>
    </marker>
    <marker
       style="overflow:visible;"
       id="Arrow1Lend"
       refX="0.0"
       refY="0.0"
       orient="auto"
       inkscape:stockid="Arrow1Lend"
       inkscape:isstock="true">
      <path
         transform="scale(0.8) rotate(180) translate(12.5,0)"
         style="fill-rule:evenodd;fill:context-stroke;stroke:context-stroke;stroke-width:1.0pt;"
         d="M 0.0,0.0 L 5.0,-5.0 L -12.5,0.0 L 5.0,5.0 L 0.0,0.0 z "
         id="path1087" />
    </marker>
    <marker
       style="overflow:visible"
       id="marker1354"
       refX="0.0"
       refY="0.0"
       orient="auto"
       inkscape:stockid="Arrow1Lstart"
       inkscape:isstock="true">
      <path
         transform="scale(0.8) translate(12.5,0)"
         style="fill-rule:evenodd;fill:context-stroke;stroke:context-stroke;stroke-width:1.0pt"
         d="M 0.0,0.0 L 5.0,-5.0 L -12.5,0.0 L 5.0,5.0 L 0.0,0.0 z "
         id="path1352" />
    </marker>
    <marker
       style="overflow:visible"
       id="Arrow1Lstart"
       refX="0.0"
       refY="0.0"
       orient="auto"
       inkscape:stockid="Arrow1Lstart"
       inkscape:isstock="true">
      <path
         transform="scale(0.8) translate(12.5,0)"
         style="fill-rule:evenodd;fill:context-stroke;stroke:context-stroke;stroke-width:1.0pt"
         d="M 0.0,0.0 L 5.0,-5.0 L -12.5,0.0 L 5.0,5.0 L 0.0,0.0 z "
         id="path1084" />
    </marker>
  </defs>
  <g
     inkscape:label="Layer 1"
     inkscape:groupmode="layer"
     id="layer1">
    <g
       id="g4366"
       transform="matrix(0.93760981,0,0,0.93760981,0.31768848,0.06587897)">
      <g
         id="path2753"
         inkscape:transform-center-x="-0.19872795"
         inkscape:transform-center-y="0.14334637"
         transform="matrix(0.25235985,0.07949115,-0.07949115,0.25235985,4.0622045,5.0816261)" />
      <g
         id="g15833"
         transform="rotate(-90,4.3246874,4.3085842)"
         style="stroke:none;stroke-width:0.423284;stroke-miterlimit:4;stroke-dasharray:none;stroke-opacity:1">
        <path
           id="path14217"
           style="fill:#3c1176;fill-opacity:1;stroke:none;stroke-width:0.423284;stroke-miterlimit:4;stroke-dasharray:none;stroke-opacity:1"
           d="M 4.1761987,-0.07026267 C 3.2067468,-0.06623261 2.2726196,0.29411841 1.551619,0.94220116 L 0.23785901,0.20944712 V 3.8779063 L 4.4706966,2.7491497 3.0597509,1.9025821 C 3.3732778,1.742146 3.8240145,1.6279053 4.1761987,1.6256281 5.3122127,1.6257794 6.2706728,2.4711045 6.4127683,3.5981965 H 8.1152728 C 7.967286,1.5316732 6.2480138,-0.06948484 4.1761987,-0.07026267 Z"
           sodipodi:nodetypes="cccccccccc" />
        <g
           id="g15728"
           inkscape:transform-center-x="0.37788536"
           inkscape:transform-center-y="1.980054"
           transform="rotate(179.92516,4.1883839,4.4421996)"
           style="stroke:none;stroke-width:0.423284;stroke-miterlimit:4;stroke-dasharray:none;stroke-opacity:1">
          <path
             id="path15722"
             style="fill:#3c1176;fill-opacity:1;stroke:none;stroke-width:1.5;stroke-miterlimit:4;stroke-dasharray:none;stroke-opacity:1"
             d="m 30.043619,15.991214 -15,4 5,3 c -1.110309,0.569991 -2.697931,0.971742 -3.945963,0.981442 -4.025715,0.0047 -7.4267829,-2.987029 -7.9355466,-6.980468 L 2.1289062,17 c 0.5339892,7.322493 6.6346282,12.989256 13.9765628,12.982422 3.435446,-0.01877 6.742898,-1.301602 9.294922,-3.601563 l 4.643228,2.610355 z"
             transform="matrix(-0.28218893,-3.6859663e-4,3.6859663e-4,-0.28218893,8.7096978,8.9605715)"
             sodipodi:nodetypes="cccccccccc" />
        </g>
      </g>
    </g>
  </g>
</svg>
